<mxfile host="app.diagrams.net" modified="2022-06-02T14:30:33.463Z" agent="5.0 (Windows NT 10.0; WOW64) AppleWebKit/537.36 (KHTML, like Gecko) Chrome/100.0.4896.143 YaBrowser/22.5.0.1816 Yowser/2.5 Safari/537.36" etag="8V8zrWXP8MSQePAMZhpB" version="18.2.0" type="github">
  <diagram id="rMPfCozTkvAufyjt28ga" name="Page-1">
    <mxGraphModel dx="868" dy="477" grid="1" gridSize="10" guides="1" tooltips="1" connect="1" arrows="1" fold="1" page="1" pageScale="1" pageWidth="827" pageHeight="1169" math="0" shadow="0">
      <root>
        <mxCell id="0" />
        <mxCell id="1" parent="0" />
        <mxCell id="sRB7kJwWuna_6rLjlJrJ-1" value="&lt;div style=&quot;text-align: center;&quot;&gt;&lt;font style=&quot;&quot;&gt;&lt;b style=&quot;&quot;&gt;&lt;span style=&quot;font-size: 24px;&quot;&gt;&amp;nbsp; &amp;nbsp;&amp;nbsp;&lt;/span&gt;&lt;font style=&quot;font-size: 18px;&quot;&gt;youTubeChannel&lt;/font&gt;&lt;/b&gt;&lt;/font&gt;&lt;/div&gt;&lt;div&gt;&lt;font size=&quot;3&quot;&gt;&lt;br&gt;&lt;/font&gt;&lt;/div&gt;&lt;div&gt;&lt;font size=&quot;3&quot;&gt;&amp;nbsp; &amp;nbsp; id: serial,&lt;/font&gt;&lt;/div&gt;&lt;div&gt;&lt;font size=&quot;3&quot;&gt;&lt;br&gt;&lt;/font&gt;&lt;/div&gt;&lt;div&gt;&lt;font size=&quot;3&quot;&gt;&amp;nbsp; &amp;nbsp; name: varchar(255)&lt;/font&gt;&lt;/div&gt;" style="rounded=0;whiteSpace=wrap;html=1;align=left;" parent="1" vertex="1">
          <mxGeometry x="600" y="150" width="210" height="170" as="geometry" />
        </mxCell>
        <mxCell id="sRB7kJwWuna_6rLjlJrJ-2" value="&lt;div&gt;&lt;b style=&quot;&quot;&gt;&lt;font style=&quot;font-size: 18px;&quot;&gt;follower_&lt;/font&gt;&lt;/b&gt;&lt;/div&gt;&lt;div&gt;&lt;b style=&quot;&quot;&gt;&lt;font style=&quot;font-size: 18px;&quot;&gt;youTubeChannel&lt;/font&gt;&lt;/b&gt;&lt;/div&gt;&lt;div style=&quot;text-align: left; font-size: 14px;&quot;&gt;&lt;font style=&quot;font-size: 14px;&quot;&gt;&lt;br&gt;&lt;/font&gt;&lt;/div&gt;&lt;div style=&quot;text-align: left; font-size: 14px;&quot;&gt;&lt;font style=&quot;font-size: 14px;&quot;&gt;id: serial primary key,&lt;/font&gt;&lt;/div&gt;&lt;div style=&quot;text-align: left; font-size: 14px;&quot;&gt;&lt;font style=&quot;font-size: 14px;&quot;&gt;&lt;br&gt;&lt;/font&gt;&lt;/div&gt;&lt;div style=&quot;text-align: left; font-size: 14px;&quot;&gt;&lt;font style=&quot;font-size: 14px;&quot;&gt;follower_id: int&amp;nbsp;&lt;/font&gt;&lt;/div&gt;&lt;div style=&quot;text-align: left; font-size: 14px;&quot;&gt;&lt;font style=&quot;font-size: 14px;&quot;&gt;&lt;br&gt;&lt;/font&gt;&lt;/div&gt;&lt;div style=&quot;text-align: left; font-size: 14px;&quot;&gt;&lt;font style=&quot;font-size: 14px;&quot;&gt;youTubeChannel_id: int&amp;nbsp;&lt;/font&gt;&lt;/div&gt;" style="rounded=0;whiteSpace=wrap;html=1;" parent="1" vertex="1">
          <mxGeometry x="318" y="150" width="210" height="170" as="geometry" />
        </mxCell>
        <mxCell id="sRB7kJwWuna_6rLjlJrJ-3" value="&lt;div style=&quot;&quot;&gt;&lt;span style=&quot;font-size: 24px;&quot;&gt;&lt;b&gt;follower&lt;/b&gt;&lt;/span&gt;&lt;/div&gt;&lt;div style=&quot;text-align: left;&quot;&gt;&lt;font size=&quot;3&quot;&gt;&lt;br&gt;&lt;/font&gt;&lt;/div&gt;&lt;div style=&quot;text-align: left;&quot;&gt;&lt;font size=&quot;3&quot;&gt;&amp;nbsp; &amp;nbsp; id: serial,&lt;/font&gt;&lt;/div&gt;&lt;div style=&quot;text-align: left;&quot;&gt;&lt;font size=&quot;3&quot;&gt;&lt;br&gt;&lt;/font&gt;&lt;/div&gt;&lt;div style=&quot;text-align: left;&quot;&gt;&lt;font size=&quot;3&quot;&gt;&amp;nbsp; &amp;nbsp; name: varchar(255)&lt;/font&gt;&lt;/div&gt;" style="rounded=0;whiteSpace=wrap;html=1;" parent="1" vertex="1">
          <mxGeometry x="60" y="150" width="180" height="170" as="geometry" />
        </mxCell>
        <mxCell id="sRB7kJwWuna_6rLjlJrJ-4" value="" style="endArrow=none;html=1;rounded=0;fontSize=18;entryX=1;entryY=0.353;entryDx=0;entryDy=0;entryPerimeter=0;" parent="1" target="sRB7kJwWuna_6rLjlJrJ-3" edge="1">
          <mxGeometry width="50" height="50" relative="1" as="geometry">
            <mxPoint x="60" y="210" as="sourcePoint" />
            <mxPoint x="450" y="320" as="targetPoint" />
            <Array as="points">
              <mxPoint x="110" y="210" />
            </Array>
          </mxGeometry>
        </mxCell>
        <mxCell id="sRB7kJwWuna_6rLjlJrJ-6" value="" style="endArrow=none;html=1;rounded=0;fontSize=18;" parent="1" edge="1">
          <mxGeometry width="50" height="50" relative="1" as="geometry">
            <mxPoint x="600" y="214" as="sourcePoint" />
            <mxPoint x="810" y="214" as="targetPoint" />
          </mxGeometry>
        </mxCell>
        <mxCell id="sRB7kJwWuna_6rLjlJrJ-7" value="" style="endArrow=classic;html=1;rounded=0;fontSize=18;exitX=0;exitY=0.665;exitDx=0;exitDy=0;exitPerimeter=0;entryX=1;entryY=0.5;entryDx=0;entryDy=0;" parent="1" source="sRB7kJwWuna_6rLjlJrJ-2" target="sRB7kJwWuna_6rLjlJrJ-3" edge="1">
          <mxGeometry width="50" height="50" relative="1" as="geometry">
            <mxPoint x="400" y="370" as="sourcePoint" />
            <mxPoint x="450" y="320" as="targetPoint" />
          </mxGeometry>
        </mxCell>
        <mxCell id="sRB7kJwWuna_6rLjlJrJ-8" value="" style="endArrow=classic;html=1;rounded=0;fontSize=18;exitX=1.005;exitY=0.894;exitDx=0;exitDy=0;exitPerimeter=0;" parent="1" source="sRB7kJwWuna_6rLjlJrJ-2" edge="1">
          <mxGeometry width="50" height="50" relative="1" as="geometry">
            <mxPoint x="400" y="370" as="sourcePoint" />
            <mxPoint x="600" y="240" as="targetPoint" />
          </mxGeometry>
        </mxCell>
        <mxCell id="PkkGOVrrvF_bOgj8gfN1-1" value="&lt;b style=&quot;font-size: 24px;&quot;&gt;many-to-many&lt;/b&gt;" style="ellipse;whiteSpace=wrap;html=1;strokeWidth=0;" parent="1" vertex="1">
          <mxGeometry x="300" y="30" width="246" height="80" as="geometry" />
        </mxCell>
        <mxCell id="ECzVXTdi6wgMADkgFq07-1" value="" style="endArrow=none;html=1;rounded=0;fontSize=14;exitX=0.005;exitY=0.382;exitDx=0;exitDy=0;exitPerimeter=0;entryX=1;entryY=0.382;entryDx=0;entryDy=0;entryPerimeter=0;" edge="1" parent="1" source="sRB7kJwWuna_6rLjlJrJ-2" target="sRB7kJwWuna_6rLjlJrJ-2">
          <mxGeometry width="50" height="50" relative="1" as="geometry">
            <mxPoint x="390" y="270" as="sourcePoint" />
            <mxPoint x="440" y="220" as="targetPoint" />
          </mxGeometry>
        </mxCell>
      </root>
    </mxGraphModel>
  </diagram>
</mxfile>
